<?xml version="1.0" encoding="iso-8859-1"?>
<!-- Generator: Adobe Illustrator 22.1.0, SVG Export Plug-In . SVG Version: 6.00 Build 0)  -->
<svg version="1.1" id="Layer_1" xmlns="http://www.w3.org/2000/svg" xmlns:xlink="http://www.w3.org/1999/xlink" x="0px" y="0px"
	 viewBox="0 0 48 48" style="enable-background:new 0 0 48 48;" xml:space="preserve">
<path d="M38.657,18.536l2.44-2.44c2.534-2.534,2.534-6.658,0-9.193c-1.227-1.226-2.858-1.9-4.597-1.9s-3.371,0.675-4.597,1.901
	l-2.439,2.439L38.657,18.536z"/>
<path d="M27.343,11.464L9.274,29.533c-0.385,0.385-0.678,0.86-0.848,1.375L5.076,41.029c-0.179,0.538-0.038,1.131,0.363,1.532
	C5.726,42.847,6.108,43,6.5,43c0.158,0,0.317-0.025,0.472-0.076l10.118-3.351c0.517-0.17,0.993-0.463,1.378-0.849l18.068-18.068
	L27.343,11.464z"/>
</svg>